<svg width="32" height="32" viewBox="0 0 32 32" fill="none" xmlns="http://www.w3.org/2000/svg">
<rect width="32" height="32" rx="16" fill="#FEF6E6"/>
<path d="M6.93306 20.008C6.31439 20.008 5.79173 19.832 5.36506 19.48C4.94906 19.128 4.74106 18.6213 4.74106 17.96C4.74106 17.4587 4.99706 17 5.50906 16.584C6.02106 16.1573 6.82639 15.8373 7.92506 15.624C8.09573 15.592 8.28773 15.56 8.50106 15.528C8.71439 15.4853 8.93839 15.4427 9.17306 15.4V14.136C9.17306 13.4107 9.08239 12.904 8.90106 12.616C8.73039 12.3173 8.45839 12.168 8.08506 12.168C7.82906 12.168 7.62639 12.2533 7.47706 12.424C7.32773 12.584 7.23173 12.8667 7.18906 13.272L7.15706 13.448C7.13573 13.9067 7.02373 14.2427 6.82106 14.456C6.61839 14.6693 6.36773 14.776 6.06906 14.776C5.79173 14.776 5.56239 14.6907 5.38106 14.52C5.19973 14.3493 5.10906 14.12 5.10906 13.832C5.10906 13.3947 5.25839 13.0267 5.55706 12.728C5.86639 12.4293 6.27173 12.2053 6.77306 12.056C7.27439 11.9067 7.81839 11.832 8.40506 11.832C9.35439 11.832 10.0851 12.0667 10.5971 12.536C11.1197 12.9947 11.3811 13.7467 11.3811 14.792V18.328C11.3811 18.808 11.6051 19.048 12.0531 19.048H12.4051L12.5491 19.176C12.3464 19.432 12.1224 19.6293 11.8771 19.768C11.6424 19.9067 11.3064 19.976 10.8691 19.976C10.3997 19.976 10.0264 19.8693 9.74906 19.656C9.48239 19.432 9.30639 19.1387 9.22106 18.776C8.90106 19.1173 8.57039 19.4107 8.22906 19.656C7.89839 19.8907 7.46639 20.008 6.93306 20.008ZM7.90906 19.032C8.12239 19.032 8.31973 18.984 8.50106 18.888C8.69306 18.7813 8.91706 18.6213 9.17306 18.408V15.72C9.06639 15.7413 8.95972 15.7627 8.85306 15.784C8.74639 15.8053 8.62373 15.8267 8.48506 15.848C7.99439 15.976 7.59973 16.1947 7.30106 16.504C7.01306 16.8027 6.86906 17.208 6.86906 17.72C6.86906 18.1573 6.97039 18.488 7.17306 18.712C7.37573 18.9253 7.62106 19.032 7.90906 19.032Z" fill="black"/>
<path d="M15.1369 17C14.4009 17 13.7769 16.8773 13.2649 16.632V17.176C13.2649 17.5067 13.4303 17.704 13.7609 17.768L16.7689 18.328C17.2703 18.424 17.7236 18.552 18.1289 18.712C18.5343 18.8613 18.8596 19.08 19.1049 19.368C19.3503 19.6453 19.4729 20.0293 19.4729 20.52C19.4729 21.0427 19.3023 21.5227 18.9609 21.96C18.6196 22.408 18.1129 22.7653 17.4409 23.032C16.7796 23.3093 15.9529 23.448 14.9609 23.448C14.1076 23.448 13.4303 23.3573 12.9289 23.176C12.4276 23.0053 12.0703 22.7813 11.8569 22.504C11.6543 22.2267 11.5529 21.9333 11.5529 21.624C11.5529 21.24 11.6809 20.8507 11.9369 20.456C12.2036 20.072 12.5289 19.7627 12.9129 19.528C12.5823 19.4 12.3423 19.2347 12.1929 19.032C12.0436 18.8293 11.9689 18.6107 11.9689 18.376C11.9689 18.1627 12.0223 17.9653 12.1289 17.784C12.2463 17.592 12.3849 17.4 12.5449 17.208L13.0729 16.536C12.2943 16.088 11.9049 15.384 11.9049 14.424C11.9049 13.656 12.1769 13.032 12.7209 12.552C13.2756 12.072 14.0863 11.832 15.1529 11.832C15.6969 11.832 16.1716 11.896 16.5769 12.024C16.9929 12.152 17.3343 12.3333 17.6009 12.568C17.9423 12.5147 18.2623 12.4293 18.5609 12.312C18.8703 12.184 19.1476 12.0133 19.3929 11.8L19.6169 11.96V12.776H17.8089C18.1929 13.2027 18.3849 13.752 18.3849 14.424C18.3849 15.1707 18.1076 15.7893 17.5529 16.28C17.0089 16.76 16.2036 17 15.1369 17ZM15.1209 16.68C15.5476 16.68 15.8569 16.504 16.0489 16.152C16.2516 15.8 16.3529 15.2133 16.3529 14.392C16.3529 13.5707 16.2516 12.9947 16.0489 12.664C15.8569 12.3227 15.5583 12.152 15.1529 12.152C14.7583 12.152 14.4596 12.328 14.2569 12.68C14.0543 13.0213 13.9529 13.6027 13.9529 14.424C13.9529 15.2453 14.0436 15.8267 14.2249 16.168C14.4169 16.5093 14.7156 16.68 15.1209 16.68ZM12.7369 21.112C12.7369 21.7413 12.9289 22.216 13.3129 22.536C13.7076 22.856 14.3263 23.016 15.1689 23.016C16.0543 23.016 16.7209 22.872 17.1689 22.584C17.6169 22.296 17.8409 21.8907 17.8409 21.368C17.8409 21.0693 17.7289 20.8293 17.5049 20.648C17.2916 20.4667 16.9236 20.328 16.4009 20.232L13.5049 19.688C13.4196 19.6667 13.3343 19.6453 13.2489 19.624C13.0996 19.8373 12.9769 20.0773 12.8809 20.344C12.7849 20.6213 12.7369 20.8773 12.7369 21.112Z" fill="black"/>
<path d="M22.1709 20.008C21.5416 20.008 20.9763 19.8693 20.4749 19.592C19.9736 19.304 19.5736 18.8667 19.2749 18.28C18.9869 17.6827 18.8429 16.92 18.8429 15.992C18.8429 15.0533 19.0083 14.28 19.3389 13.672C19.6696 13.0533 20.1069 12.5947 20.6509 12.296C21.1949 11.9867 21.7869 11.832 22.4269 11.832C22.8003 11.832 23.1576 11.8693 23.4989 11.944C23.8403 12.0187 24.1443 12.1307 24.4109 12.28V10.2C24.4109 9.976 24.3736 9.81067 24.2989 9.704C24.2349 9.59734 24.0909 9.52267 23.8669 9.48L23.5629 9.416V9.256L26.4749 8.552L26.6509 8.696L26.5869 10.936V18.76C26.5869 18.9733 26.6243 19.1493 26.6989 19.288C26.7736 19.416 26.9123 19.5067 27.1149 19.56L27.2589 19.608V19.768L24.5229 19.944L24.3789 19.368C24.0909 19.56 23.7603 19.7147 23.3869 19.832C23.0243 19.9493 22.6189 20.008 22.1709 20.008ZM23.0989 19.416C23.5469 19.416 23.9576 19.2827 24.3309 19.016V12.664C23.9363 12.408 23.5309 12.28 23.1149 12.28C22.6029 12.28 22.1656 12.5787 21.8029 13.176C21.4403 13.7627 21.2589 14.6907 21.2589 15.96C21.2589 17.2293 21.4296 18.1253 21.7709 18.648C22.1123 19.16 22.5549 19.416 23.0989 19.416Z" fill="black"/>
</svg>
